<svg id="Layer_1" data-name="Layer 1" xmlns="http://www.w3.org/2000/svg" viewBox="0 0 505 215"><defs><style>.cls-1{fill:#fff;}.cls-2{fill:none;stroke:red;stroke-miterlimit:10;stroke-width:2px;}</style></defs><rect class="cls-1" width="505" height="215"/><path d="M718.94,364.36h11.8c10.89,0,17.61,6.89,17.61,17.93,0,14.2-9,24.66-23.72,24.66h-14.7Zm-4.13,39h9.57c12.49,0,19.57-8.7,19.62-21.08,0-8.89-4.85-14.41-13.8-14.41h-7.92Z" transform="translate(-603 -298)"/><path d="M781.09,388.14c0,8.44-4.73,19.42-16.05,19.42-7,0-11.17-4.52-11.17-12.26,0-8.58,5.17-19.66,16-19.66C776.74,375.64,781.09,380.31,781.09,388.14Zm-23.26,7.12c0,5.44,2.69,8.88,7.66,8.88,8,0,11.59-9,11.59-15.95,0-5.64-2.45-9.13-7.62-9.13C761.77,379.06,757.83,388.09,757.83,395.26Z" transform="translate(-603 -298)"/><path d="M789.84,384.05c.55-2.69,1.06-5.27,1.54-7.8h3.77c-.11,1-.83,4.92-1.06,5.76,1.86-3.14,4.92-6.37,10.72-6.37s9.51,3.28,7.65,11.87L808.38,407h-3.84l4-19.21c1.1-5.08,0-8.54-5.18-8.54-6.38,0-9.94,6.1-11.31,12.6L788.85,407H785Z" transform="translate(-603 -298)"/><path d="M819.74,377.39a52.71,52.71,0,0,0,6.58-15.32h4a45.89,45.89,0,0,1-7.11,15.32Z" transform="translate(-603 -298)"/><path d="M832.51,376.25h5.29l1.94-9.08h3.84l-1.92,9.08h6.82l-.76,3.35H840.9l-4.14,19.76c-.68,3.15-.54,4.54,2.2,4.54a16.24,16.24,0,0,0,3.19-.29l-.78,3.24a11.16,11.16,0,0,1-3.82.51c-4.24,0-6-1.84-4.91-6.83l4.41-20.93h-5.3Z" transform="translate(-603 -298)"/><path d="M873.51,364.36h25.43l-.78,3.58H876.87l-3.3,15.53h20l-.78,3.57h-20L868.64,407H864.5Z" transform="translate(-603 -298)"/><path d="M925.17,388.14c0,8.44-4.73,19.42-16,19.42-7,0-11.17-4.52-11.17-12.26,0-8.58,5.17-19.66,16-19.66C920.82,375.64,925.17,380.31,925.17,388.14Zm-23.26,7.12c0,5.44,2.68,8.88,7.66,8.88,8,0,11.59-9,11.59-15.95,0-5.64-2.46-9.13-7.63-9.13C905.85,379.06,901.91,388.09,901.91,395.26Z" transform="translate(-603 -298)"/><path d="M933.68,385.34c.62-3,1.28-6.26,1.77-9.09h3.71c-.06.79-.61,4.17-1.21,6.83,2.28-4.58,6.55-7.44,11-7.44l-.91,4.11c-5.94.57-10.52,5.48-12,12.43L932.93,407h-3.86Z" transform="translate(-603 -298)"/><path d="M972.74,404.47c-2,9.64-5.2,15.27-15.28,15.27-9.69,0-11-5.54-11-9.11h3.88c0,3.14,2.19,5.83,7.62,5.83,7.16,0,9.3-4.93,11-12.44l.79-3.41a11.38,11.38,0,0,1-10.44,6.27c-5.93,0-9.89-4.05-9.89-11.76,0-9.13,5.33-19.48,15.49-19.48,5.58,0,8.36,3.07,8.86,5.48.4-1.63,1-3.9,1.35-4.87h3.69c-.6,2.47-1.27,5.55-1.87,8.32Zm-19.24-9.61c0,5.7,2.5,8.5,7,8.5,6.24,0,10-5.92,11.51-12.66,1.41-6.51-.43-11.55-7.09-11.55C957.56,379.15,953.5,387,953.5,394.86Z" transform="translate(-603 -298)"/><path d="M986.77,391.94a25.15,25.15,0,0,0-.28,3.34c0,5.9,2.92,8.87,7.49,8.87,5,0,7.22-2.77,8.76-5.59h4c-2.12,4.84-5.8,9-13.3,9s-10.89-5.06-10.89-12c0-8.85,4.82-19.88,15.84-19.88,7.93,0,10.52,5.33,10.52,10.64a20.72,20.72,0,0,1-.75,5.66Zm18.15-3.2a13.19,13.19,0,0,0,.22-2.55c0-4.75-2.26-7.22-7-7.22-5,0-8.85,3.54-10.6,9.77Z" transform="translate(-603 -298)"/><path d="M1015,376.25h5.29l1.94-9.08h3.84l-1.92,9.08H1031l-.76,3.35h-6.82l-4.14,19.76c-.68,3.15-.55,4.54,2.2,4.54a16.24,16.24,0,0,0,3.19-.29l-.78,3.24a11.16,11.16,0,0,1-3.82.51c-4.24,0-6-1.84-4.92-6.83l4.42-20.93h-5.3Z" transform="translate(-603 -298)"/><path d="M1581,397" transform="translate(-603 -298)"/><path class="cls-2" d="M677.5,436.5s229-20,371,17" transform="translate(-603 -298)"/><path class="cls-2" d="M719.22,453.5s162.34-14.58,306.31,14.21" transform="translate(-603 -298)"/></svg>